<svg height="2062" width="720" xmlns="http://www.w3.org/2000/svg">
<rect height="2062" fill="#555" width="720"></rect>
<text fill="#7f7" font-family="Courier New" font-size="12" xml:space="preserve">
<tspan x="10" y="26">9 megabytes installed</tspan>
<tspan x="10" y="42"></tspan>
<tspan x="10" y="58">node_modules</tspan>
<tspan x="10" y="74">├─┬ gulp-tsc@1.3.2 </tspan>
<tspan x="10" y="90">│ ├── async@1.5.2 </tspan>
<tspan x="10" y="106">│ ├── byline@4.2.2 </tspan>
<tspan x="10" y="122">│ ├─┬ gulp-util@3.0.8 </tspan>
<tspan x="10" y="138">│ │ ├── array-differ@1.0.0 </tspan>
<tspan x="10" y="154">│ │ ├── array-uniq@1.0.3 </tspan>
<tspan x="10" y="170">│ │ ├── beeper@1.1.1 </tspan>
<tspan x="10" y="186">│ │ ├─┬ chalk@1.1.3 </tspan>
<tspan x="10" y="202">│ │ │ ├── ansi-styles@2.2.1 </tspan>
<tspan x="10" y="218">│ │ │ ├── escape-string-regexp@1.0.5 </tspan>
<tspan x="10" y="234">│ │ │ ├─┬ has-ansi@2.0.0 </tspan>
<tspan x="10" y="250">│ │ │ │ └── ansi-regex@2.1.1 </tspan>
<tspan x="10" y="266">│ │ │ ├── strip-ansi@3.0.1 </tspan>
<tspan x="10" y="282">│ │ │ └── supports-color@2.0.0 </tspan>
<tspan x="10" y="298">│ │ ├── dateformat@2.0.0 </tspan>
<tspan x="10" y="314">│ │ ├─┬ fancy-log@1.3.0 </tspan>
<tspan x="10" y="330">│ │ │ └── time-stamp@1.0.1 </tspan>
<tspan x="10" y="346">│ │ ├─┬ gulplog@1.0.0 </tspan>
<tspan x="10" y="362">│ │ │ └── glogg@1.0.0 </tspan>
<tspan x="10" y="378">│ │ ├─┬ has-gulplog@0.1.0 </tspan>
<tspan x="10" y="394">│ │ │ └── sparkles@1.0.0 </tspan>
<tspan x="10" y="410">│ │ ├── lodash._reescape@3.0.0 </tspan>
<tspan x="10" y="426">│ │ ├── lodash._reevaluate@3.0.0 </tspan>
<tspan x="10" y="442">│ │ ├── lodash._reinterpolate@3.0.0 </tspan>
<tspan x="10" y="458">│ │ ├─┬ lodash.template@3.6.2 </tspan>
<tspan x="10" y="474">│ │ │ ├── lodash._basecopy@3.0.1 </tspan>
<tspan x="10" y="490">│ │ │ ├── lodash._basetostring@3.0.1 </tspan>
<tspan x="10" y="506">│ │ │ ├── lodash._basevalues@3.0.0 </tspan>
<tspan x="10" y="522">│ │ │ ├── lodash._isiterateecall@3.0.9 </tspan>
<tspan x="10" y="538">│ │ │ ├─┬ lodash.escape@3.2.0 </tspan>
<tspan x="10" y="554">│ │ │ │ └── lodash._root@3.0.1 </tspan>
<tspan x="10" y="570">│ │ │ ├─┬ lodash.keys@3.1.2 </tspan>
<tspan x="10" y="586">│ │ │ │ ├── lodash._getnative@3.9.1 </tspan>
<tspan x="10" y="602">│ │ │ │ ├── lodash.isarguments@3.1.0 </tspan>
<tspan x="10" y="618">│ │ │ │ └── lodash.isarray@3.0.4 </tspan>
<tspan x="10" y="634">│ │ │ ├── lodash.restparam@3.6.1 </tspan>
<tspan x="10" y="650">│ │ │ └── lodash.templatesettings@3.1.1 </tspan>
<tspan x="10" y="666">│ │ ├── minimist@1.2.0 </tspan>
<tspan x="10" y="682">│ │ ├─┬ multipipe@0.1.2 </tspan>
<tspan x="10" y="698">│ │ │ └─┬ duplexer2@0.0.2 </tspan>
<tspan x="10" y="714">│ │ │   └── readable-stream@1.1.14 </tspan>
<tspan x="10" y="730">│ │ ├── object-assign@3.0.0 </tspan>
<tspan x="10" y="746">│ │ ├── replace-ext@0.0.1 </tspan>
<tspan x="10" y="762">│ │ └─┬ vinyl@0.5.3 </tspan>
<tspan x="10" y="778">│ │   ├── clone@1.0.2 </tspan>
<tspan x="10" y="794">│ │   └── clone-stats@0.0.1 </tspan>
<tspan x="10" y="810">│ ├── lodash@3.10.1 </tspan>
<tspan x="10" y="826">│ ├── node-version-compare@1.0.1 </tspan>
<tspan x="10" y="842">│ ├─┬ resolve@1.3.3 </tspan>
<tspan x="10" y="858">│ │ └── path-parse@1.0.5 </tspan>
<tspan x="10" y="874">│ ├─┬ rimraf@2.6.1 </tspan>
<tspan x="10" y="890">│ │ └─┬ glob@7.1.1 </tspan>
<tspan x="10" y="906">│ │   ├── fs.realpath@1.0.0 </tspan>
<tspan x="10" y="922">│ │   ├─┬ inflight@1.0.6 </tspan>
<tspan x="10" y="938">│ │   │ └── wrappy@1.0.2 </tspan>
<tspan x="10" y="954">│ │   ├── inherits@2.0.3 </tspan>
<tspan x="10" y="970">│ │   ├─┬ minimatch@3.0.3 </tspan>
<tspan x="10" y="986">│ │   │ └─┬ brace-expansion@1.1.7 </tspan>
<tspan x="10" y="1002">│ │   │   ├── balanced-match@0.4.2 </tspan>
<tspan x="10" y="1018">│ │   │   └── concat-map@0.0.1 </tspan>
<tspan x="10" y="1034">│ │   ├── once@1.4.0 </tspan>
<tspan x="10" y="1050">│ │   └── path-is-absolute@1.0.1 </tspan>
<tspan x="10" y="1066">│ ├─┬ temp@0.8.3 </tspan>
<tspan x="10" y="1082">│ │ ├── os-tmpdir@1.0.2 </tspan>
<tspan x="10" y="1098">│ │ └── rimraf@2.2.8 </tspan>
<tspan x="10" y="1114">│ ├─┬ through2@2.0.3 </tspan>
<tspan x="10" y="1130">│ │ ├─┬ readable-stream@2.2.9 </tspan>
<tspan x="10" y="1146">│ │ │ ├── buffer-shims@1.0.0 </tspan>
<tspan x="10" y="1162">│ │ │ ├── core-util-is@1.0.2 </tspan>
<tspan x="10" y="1178">│ │ │ ├── isarray@1.0.0 </tspan>
<tspan x="10" y="1194">│ │ │ ├── process-nextick-args@1.0.7 </tspan>
<tspan x="10" y="1210">│ │ │ ├── string_decoder@1.0.0 </tspan>
<tspan x="10" y="1226">│ │ │ └── util-deprecate@1.0.2 </tspan>
<tspan x="10" y="1242">│ │ └── xtend@4.0.1 </tspan>
<tspan x="10" y="1258">│ ├─┬ vinyl-fs@1.0.0 </tspan>
<tspan x="10" y="1274">│ │ ├─┬ duplexify@3.5.0 </tspan>
<tspan x="10" y="1290">│ │ │ ├─┬ end-of-stream@1.0.0 </tspan>
<tspan x="10" y="1306">│ │ │ │ └── once@1.3.3 </tspan>
<tspan x="10" y="1322">│ │ │ ├─┬ readable-stream@2.2.9 </tspan>
<tspan x="10" y="1338">│ │ │ │ ├── isarray@1.0.0 </tspan>
<tspan x="10" y="1354">│ │ │ │ └── string_decoder@1.0.0 </tspan>
<tspan x="10" y="1370">│ │ │ └── stream-shift@1.0.0 </tspan>
<tspan x="10" y="1386">│ │ ├─┬ glob-stream@4.1.1 </tspan>
<tspan x="10" y="1402">│ │ │ ├── glob@4.5.3 </tspan>
<tspan x="10" y="1418">│ │ │ ├─┬ glob2base@0.0.12 </tspan>
<tspan x="10" y="1434">│ │ │ │ └── find-index@0.1.1 </tspan>
<tspan x="10" y="1450">│ │ │ ├── minimatch@2.0.10 </tspan>
<tspan x="10" y="1466">│ │ │ ├── ordered-read-streams@0.1.0 </tspan>
<tspan x="10" y="1482">│ │ │ ├─┬ through2@0.6.5 </tspan>
<tspan x="10" y="1498">│ │ │ │ └── readable-stream@1.0.34 </tspan>
<tspan x="10" y="1514">│ │ │ └─┬ unique-stream@2.2.1 </tspan>
<tspan x="10" y="1530">│ │ │   ├─┬ json-stable-stringify@1.0.1 </tspan>
<tspan x="10" y="1546">│ │ │   │ └── jsonify@0.0.0 </tspan>
<tspan x="10" y="1562">│ │ │   └── through2-filter@2.0.0 </tspan>
<tspan x="10" y="1578">│ │ ├─┬ glob-watcher@0.0.8 </tspan>
<tspan x="10" y="1594">│ │ │ └─┬ gaze@0.5.2 </tspan>
<tspan x="10" y="1610">│ │ │   └─┬ globule@0.1.0 </tspan>
<tspan x="10" y="1626">│ │ │     ├─┬ glob@3.1.21 </tspan>
<tspan x="10" y="1642">│ │ │     │ ├── graceful-fs@1.2.3 </tspan>
<tspan x="10" y="1658">│ │ │     │ └── inherits@1.0.2 </tspan>
<tspan x="10" y="1674">│ │ │     ├── lodash@1.0.2 </tspan>
<tspan x="10" y="1690">│ │ │     └─┬ minimatch@0.2.14 </tspan>
<tspan x="10" y="1706">│ │ │       ├── lru-cache@2.7.3 </tspan>
<tspan x="10" y="1722">│ │ │       └── sigmund@1.0.1 </tspan>
<tspan x="10" y="1738">│ │ ├─┬ graceful-fs@3.0.11 </tspan>
<tspan x="10" y="1754">│ │ │ └── natives@1.1.0 </tspan>
<tspan x="10" y="1770">│ │ ├─┬ merge-stream@0.1.8 </tspan>
<tspan x="10" y="1786">│ │ │ └─┬ through2@0.6.5 </tspan>
<tspan x="10" y="1802">│ │ │   └── readable-stream@1.0.34 </tspan>
<tspan x="10" y="1818">│ │ ├─┬ mkdirp@0.5.1 </tspan>
<tspan x="10" y="1834">│ │ │ └── minimist@0.0.8 </tspan>
<tspan x="10" y="1850">│ │ ├── object-assign@2.1.1 </tspan>
<tspan x="10" y="1866">│ │ ├─┬ strip-bom@1.0.0 </tspan>
<tspan x="10" y="1882">│ │ │ ├── first-chunk-stream@1.0.0 </tspan>
<tspan x="10" y="1898">│ │ │ └── is-utf8@0.2.1 </tspan>
<tspan x="10" y="1914">│ │ ├─┬ through2@0.6.5 </tspan>
<tspan x="10" y="1930">│ │ │ └─┬ readable-stream@1.0.34 </tspan>
<tspan x="10" y="1946">│ │ │   ├── isarray@0.0.1 </tspan>
<tspan x="10" y="1962">│ │ │   └── string_decoder@0.10.31 </tspan>
<tspan x="10" y="1978">│ │ └─┬ vinyl@0.4.6 </tspan>
<tspan x="10" y="1994">│ │   └── clone@0.2.0 </tspan>
<tspan x="10" y="2010">│ └─┬ which@1.2.14 </tspan>
<tspan x="10" y="2026">│   └── isexe@2.0.0 </tspan>
<tspan x="10" y="2042">└── UNMET PEER DEPENDENCY typescript@&gt;=1.0.1 || 2.x</tspan>
</text>
</svg>
